<?xml version="1.0" encoding="UTF-8"?>
<!DOCTYPE svg PUBLIC "-//W3C//DTD SVG 1.1//EN" "http://www.w3.org/Graphics/SVG/1.1/DTD/svg11.dtd">
<svg xmlns="http://www.w3.org/2000/svg" version="1.1" width="534px" height="534px" style="shape-rendering:geometricPrecision; text-rendering:geometricPrecision; image-rendering:optimizeQuality; fill-rule:evenodd; clip-rule:evenodd" xmlns:xlink="http://www.w3.org/1999/xlink">
<g><path style="opacity:1" fill="#fe5100" d="M 358.5,152.5 C 357.778,152.918 357.278,153.584 357,154.5C 352.089,151.808 346.923,149.808 341.5,148.5C 339.885,137.373 336.718,126.707 332,116.5C 319.367,100.25 303.867,97.0832 285.5,107C 278.181,112.479 273.515,119.645 271.5,128.5C 231.635,122.061 191.635,121.061 151.5,125.5C 151.5,124.167 151.5,122.833 151.5,121.5C 152.434,120.432 152.768,119.099 152.5,117.5C 161.23,117.363 169.897,116.53 178.5,115C 180.97,114.011 183.303,112.845 185.5,111.5C 189.513,115.09 194.18,116.257 199.5,115C 202.949,108.359 201.283,103.192 194.5,99.5C 190.794,85.9134 183.461,74.7468 172.5,66C 170.323,64.7978 167.989,64.2978 165.5,64.5C 180.68,35.3759 204.68,18.2092 237.5,13C 305.034,10.9891 344.534,43.1558 356,109.5C 357.918,123.771 358.751,138.104 358.5,152.5 Z"/></g>
<g><path style="opacity:1" fill="#442b0d" d="M 266.5,50.5 C 272.471,49.141 276.137,51.3076 277.5,57C 277.01,59.5028 275.677,61.5028 273.5,63C 267.843,65.4934 262.51,68.4934 257.5,72C 261.302,74.0875 263.802,77.2541 265,81.5C 268.288,99.8666 260.788,108.367 242.5,107C 234.553,102.622 230.553,95.7888 230.5,86.5C 226.042,84.5795 224.542,81.2462 226,76.5C 238.325,65.9259 251.825,57.2592 266.5,50.5 Z"/></g>
<g><path style="opacity:1" fill="#d74214" d="M 165.5,64.5 C 167.989,64.2978 170.323,64.7978 172.5,66C 183.461,74.7468 190.794,85.9134 194.5,99.5C 180.088,91.4552 164.755,89.2885 148.5,93C 129.205,96.3197 111.538,103.486 95.5,114.5C 96.5642,106.037 100.064,98.7038 106,92.5C 122.946,77.1114 142.779,67.7781 165.5,64.5 Z"/></g>
<g><path style="opacity:1" fill="#845c22" d="M 243.5,73.5 C 250.284,74.116 252.117,77.4493 249,83.5C 245.952,87.0095 242.619,87.3428 239,84.5C 237.393,79.4383 238.893,75.7716 243.5,73.5 Z"/></g>
<g><path style="opacity:1" fill="#442b0d" d="M 194.5,99.5 C 201.283,103.192 202.949,108.359 199.5,115C 194.18,116.257 189.513,115.09 185.5,111.5C 180.715,108.286 175.382,106.12 169.5,105C 144.435,102.247 120.768,106.747 98.5,118.5C 97.5,118.5 96.5,118.5 95.5,118.5C 95.5,117.167 95.5,115.833 95.5,114.5C 111.538,103.486 129.205,96.3197 148.5,93C 164.755,89.2885 180.088,91.4552 194.5,99.5 Z"/></g>
<g><path style="opacity:1" fill="#ff9600" d="M 341.5,148.5 C 341.666,153.844 341.499,159.177 341,164.5C 340.302,167.004 339.469,169.337 338.5,171.5C 316.167,166.833 293.833,162.167 271.5,157.5C 272.11,156.609 272.443,155.609 272.5,154.5C 272.058,150.846 271.724,147.179 271.5,143.5C 271.5,138.5 271.5,133.5 271.5,128.5C 273.515,119.645 278.181,112.479 285.5,107C 303.867,97.0832 319.367,100.25 332,116.5C 336.718,126.707 339.885,137.373 341.5,148.5 Z"/></g>
<g><path style="opacity:1" fill="#d54315" d="M 185.5,111.5 C 183.303,112.845 180.97,114.011 178.5,115C 169.897,116.53 161.23,117.363 152.5,117.5C 152.768,119.099 152.434,120.432 151.5,121.5C 151.5,120.5 151.5,119.5 151.5,118.5C 138.114,118.765 124.78,119.765 111.5,121.5C 106.774,121.943 102.441,120.943 98.5,118.5C 120.768,106.747 144.435,102.247 169.5,105C 175.382,106.12 180.715,108.286 185.5,111.5 Z"/></g>
<g><path style="opacity:1" fill="#fe5e07" d="M 271.5,128.5 C 271.5,133.5 271.5,138.5 271.5,143.5C 230.593,136.484 189.593,135.817 148.5,141.5C 147.584,141.457 146.917,141.124 146.5,140.5C 148.465,135.576 150.132,130.576 151.5,125.5C 191.635,121.061 231.635,122.061 271.5,128.5 Z"/></g>
<g><path style="opacity:1" fill="#fd660b" d="M 271.5,143.5 C 271.724,147.179 272.058,150.846 272.5,154.5C 228.649,145.996 184.649,145.329 140.5,152.5C 141.992,148.182 143.992,144.182 146.5,140.5C 146.917,141.124 147.584,141.457 148.5,141.5C 189.593,135.817 230.593,136.484 271.5,143.5 Z"/></g>
<g><path style="opacity:1" fill="#fd6e10" d="M 272.5,154.5 C 272.443,155.609 272.11,156.609 271.5,157.5C 268.15,159.196 264.817,160.863 261.5,162.5C 231.143,157.437 200.81,156.437 170.5,159.5C 167.477,158.572 164.643,157.238 162,155.5C 158.719,158.048 155.886,161.048 153.5,164.5C 152.396,166.389 151.063,168.055 149.5,169.5C 143.773,170.177 138.106,171.177 132.5,172.5C 131.893,172.376 131.56,172.043 131.5,171.5C 133.93,164.866 136.93,158.533 140.5,152.5C 184.649,145.329 228.649,145.996 272.5,154.5 Z"/></g>
<g><path style="opacity:1" fill="#fd7513" d="M 261.5,162.5 C 256.467,165.431 251.133,167.764 245.5,169.5C 219.116,175.578 194.116,172.245 170.5,159.5C 200.81,156.437 231.143,157.437 261.5,162.5 Z"/></g>
<g><path style="opacity:1" fill="#fd640c" d="M 341.5,148.5 C 346.923,149.808 352.089,151.808 357,154.5C 357.278,153.584 357.778,152.918 358.5,152.5C 358.351,153.552 358.517,154.552 359,155.5C 368.473,166.11 375.639,178.11 380.5,191.5C 372.941,188.737 365.275,185.237 357.5,181C 351.182,178.396 344.849,175.896 338.5,173.5C 338.5,172.833 338.5,172.167 338.5,171.5C 339.469,169.337 340.302,167.004 341,164.5C 341.499,159.177 341.666,153.844 341.5,148.5 Z"/></g>
<g><path style="opacity:1" fill="#ffa412" d="M 271.5,157.5 C 293.833,162.167 316.167,166.833 338.5,171.5C 338.5,172.167 338.5,172.833 338.5,173.5C 335.93,178.738 332.264,183.072 327.5,186.5C 300.167,180.833 272.833,175.167 245.5,169.5C 251.133,167.764 256.467,165.431 261.5,162.5C 264.817,160.863 268.15,159.196 271.5,157.5 Z"/></g>
<g><path style="opacity:1" fill="#feb82c" d="M 153.5,164.5 C 194.259,171.652 234.926,179.318 275.5,187.5C 274.499,190.172 273.499,192.838 272.5,195.5C 231.169,187.834 189.836,180.167 148.5,172.5C 149.11,171.609 149.443,170.609 149.5,169.5C 151.063,168.055 152.396,166.389 153.5,164.5 Z"/></g>
<g><path style="opacity:1" fill="#ffad1e" d="M 170.5,159.5 C 194.116,172.245 219.116,175.578 245.5,169.5C 272.833,175.167 300.167,180.833 327.5,186.5C 327.5,187.167 327.167,187.5 326.5,187.5C 320.075,191.188 313.075,192.855 305.5,192.5C 301.416,191.812 297.416,190.812 293.5,189.5C 289.542,186.715 285.709,183.715 282,180.5C 279.6,182.729 277.433,185.063 275.5,187.5C 234.926,179.318 194.259,171.652 153.5,164.5C 155.886,161.048 158.719,158.048 162,155.5C 164.643,157.238 167.477,158.572 170.5,159.5 Z"/></g>
<g><path style="opacity:1" fill="#febe35" d="M 148.5,172.5 C 189.836,180.167 231.169,187.834 272.5,195.5C 271.985,197.894 271.319,200.228 270.5,202.5C 228.813,194.274 187.146,185.941 145.5,177.5C 146.248,175.668 147.248,174.001 148.5,172.5 Z"/></g>
<g><path style="opacity:1" fill="#fec340" d="M 145.5,177.5 C 187.146,185.941 228.813,194.274 270.5,202.5C 270.5,204.167 270.5,205.833 270.5,207.5C 269.833,207.5 269.5,207.833 269.5,208.5C 227.119,200.757 184.786,192.757 142.5,184.5C 143.227,182.046 144.227,179.713 145.5,177.5 Z"/></g>
<g><path style="opacity:1" fill="#fe5200" d="M 293.5,189.5 C 303.475,197.804 313.475,206.137 323.5,214.5C 327.649,218.804 331.316,223.47 334.5,228.5C 335.988,233.467 337.988,238.134 340.5,242.5C 340.674,244.861 341.007,247.194 341.5,249.5C 335.942,245.614 330.276,241.114 324.5,236C 307.736,224.118 289.736,214.618 270.5,207.5C 270.5,205.833 270.5,204.167 270.5,202.5C 271.319,200.228 271.985,197.894 272.5,195.5C 273.499,192.838 274.499,190.172 275.5,187.5C 277.433,185.063 279.6,182.729 282,180.5C 285.709,183.715 289.542,186.715 293.5,189.5 Z"/></g>
<g><path style="opacity:1" fill="#fb7f1c" d="M 149.5,169.5 C 149.443,170.609 149.11,171.609 148.5,172.5C 147.248,174.001 146.248,175.668 145.5,177.5C 144.227,179.713 143.227,182.046 142.5,184.5C 140.992,186.181 139.992,188.181 139.5,190.5C 138.5,192.5 137.5,194.5 136.5,196.5C 131.165,197.5 125.832,198.5 120.5,199.5C 123.4,189.787 127.067,180.453 131.5,171.5C 131.56,172.043 131.893,172.376 132.5,172.5C 138.106,171.177 143.773,170.177 149.5,169.5 Z"/></g>
<g><path style="opacity:1" fill="#fec64a" d="M 142.5,184.5 C 184.786,192.757 227.119,200.757 269.5,208.5C 269.5,210.5 269.5,212.5 269.5,214.5C 268.833,214.5 268.5,214.833 268.5,215.5C 225.569,206.845 182.569,198.511 139.5,190.5C 139.992,188.181 140.992,186.181 142.5,184.5 Z"/></g>
<g><path style="opacity:1" fill="#fd7112" d="M 338.5,173.5 C 344.849,175.896 351.182,178.396 357.5,181C 365.275,185.237 372.941,188.737 380.5,191.5C 385.286,200.078 389.286,209.078 392.5,218.5C 392.631,219.239 392.464,219.906 392,220.5C 371.271,207.219 349.438,196.219 326.5,187.5C 327.167,187.5 327.5,187.167 327.5,186.5C 332.264,183.072 335.93,178.738 338.5,173.5 Z"/></g>
<g><path style="opacity:1" fill="#fc7917" d="M 326.5,187.5 C 349.438,196.219 371.271,207.219 392,220.5C 392.464,219.906 392.631,219.239 392.5,218.5C 395.269,223.801 397.269,229.468 398.5,235.5C 398.483,237.028 397.816,237.528 396.5,237C 368.245,217.872 337.912,203.039 305.5,192.5C 313.075,192.855 320.075,191.188 326.5,187.5 Z"/></g>
<g><path style="opacity:1" fill="#fc801b" d="M 293.5,189.5 C 297.416,190.812 301.416,191.812 305.5,192.5C 337.912,203.039 368.245,217.872 396.5,237C 397.816,237.528 398.483,237.028 398.5,235.5C 401.607,242.492 403.941,249.826 405.5,257.5C 405.103,258.525 404.437,258.692 403.5,258C 379.886,240.018 354.22,225.351 326.5,214C 325.251,213.26 324.251,213.427 323.5,214.5C 313.475,206.137 303.475,197.804 293.5,189.5 Z"/></g>
<g><path style="opacity:1" fill="#ffcb58" d="M 139.5,190.5 C 182.569,198.511 225.569,206.845 268.5,215.5C 268.5,217.833 268.5,220.167 268.5,222.5C 267.833,222.5 267.5,222.833 267.5,223.5C 223.857,215.038 180.19,206.705 136.5,198.5C 136.5,197.833 136.5,197.167 136.5,196.5C 137.5,194.5 138.5,192.5 139.5,190.5 Z"/></g>
<g><path style="opacity:1" fill="#ffcf66" d="M 136.5,198.5 C 180.19,206.705 223.857,215.038 267.5,223.5C 267.5,227.167 267.5,230.833 267.5,234.5C 223.139,225.94 178.806,217.273 134.5,208.5C 134.311,204.963 134.977,201.63 136.5,198.5 Z"/></g>
<g><path style="opacity:1" fill="#ffd475" d="M 134.5,208.5 C 178.806,217.273 223.139,225.94 267.5,234.5C 267.5,236.5 267.5,238.5 267.5,240.5C 267.5,240.833 267.5,241.167 267.5,241.5C 223.543,232.709 179.543,224.042 135.5,215.5C 134.261,215.942 133.261,216.609 132.5,217.5C 132.42,214.219 133.087,211.219 134.5,208.5 Z"/></g>
<g><path style="opacity:1" fill="#fc871e" d="M 323.5,214.5 C 324.251,213.427 325.251,213.26 326.5,214C 354.22,225.351 379.886,240.018 403.5,258C 404.437,258.692 405.103,258.525 405.5,257.5C 407.591,262.191 408.924,267.191 409.5,272.5C 386.934,255.163 362.267,240.163 335.5,227.5C 334.893,227.624 334.56,227.957 334.5,228.5C 331.316,223.47 327.649,218.804 323.5,214.5 Z"/></g>
<g><path style="opacity:1" fill="#fe6309" d="M 270.5,207.5 C 289.736,214.618 307.736,224.118 324.5,236C 330.276,241.114 335.942,245.614 341.5,249.5C 342.657,252.273 343.324,255.273 343.5,258.5C 343.5,259.167 343.5,259.833 343.5,260.5C 343.664,263.187 343.497,265.854 343,268.5C 322.824,245.832 298.324,229.832 269.5,220.5C 269.5,218.5 269.5,216.5 269.5,214.5C 269.5,212.5 269.5,210.5 269.5,208.5C 269.5,207.833 269.833,207.5 270.5,207.5 Z"/></g>
<g><path style="opacity:1" fill="#fb9025" d="M 136.5,196.5 C 136.5,197.167 136.5,197.833 136.5,198.5C 134.977,201.63 134.311,204.963 134.5,208.5C 133.087,211.219 132.42,214.219 132.5,217.5C 132.331,222.181 131.998,226.848 131.5,231.5C 124.989,232.56 118.656,234.227 112.5,236.5C 113.142,223.615 115.809,211.282 120.5,199.5C 125.832,198.5 131.165,197.5 136.5,196.5 Z"/></g>
<g><path style="opacity:1" fill="#fd6f10" d="M 269.5,214.5 C 269.5,216.5 269.5,218.5 269.5,220.5C 298.324,229.832 322.824,245.832 343,268.5C 343.497,265.854 343.664,263.187 343.5,260.5C 344.485,264.634 344.818,268.968 344.5,273.5C 343.908,276.127 343.575,278.794 343.5,281.5C 323.291,257.214 298.291,239.547 268.5,228.5C 268.5,226.5 268.5,224.5 268.5,222.5C 268.5,220.167 268.5,217.833 268.5,215.5C 268.5,214.833 268.833,214.5 269.5,214.5 Z"/></g>
<g><path style="opacity:1" fill="#ffd987" d="M 267.5,241.5 C 267.5,244.5 267.5,247.5 267.5,250.5C 267.5,251.833 267.5,253.167 267.5,254.5C 222.501,245.834 177.501,237.167 132.5,228.5C 132.813,232.042 132.479,235.375 131.5,238.5C 131.5,236.167 131.5,233.833 131.5,231.5C 131.998,226.848 132.331,222.181 132.5,217.5C 133.261,216.609 134.261,215.942 135.5,215.5C 179.543,224.042 223.543,232.709 267.5,241.5 Z"/></g>
<g><path style="opacity:1" fill="#fc8c22" d="M 409.5,272.5 C 411.594,278.56 412.928,284.893 413.5,291.5C 391.408,271.945 367.075,255.612 340.5,242.5C 337.988,238.134 335.988,233.467 334.5,228.5C 334.56,227.957 334.893,227.624 335.5,227.5C 362.267,240.163 386.934,255.163 409.5,272.5 Z"/></g>
<g><path style="opacity:1" fill="#fd7916" d="M 268.5,228.5 C 298.291,239.547 323.291,257.214 343.5,281.5C 343.552,283.903 343.219,286.236 342.5,288.5C 323.186,263.189 298.52,245.189 268.5,234.5C 268.5,232.5 268.5,230.5 268.5,228.5 Z"/></g>
<g><path style="opacity:1" fill="#ffdf99" d="M 267.5,254.5 C 267.963,257.482 268.296,260.482 268.5,263.5C 268.5,264.833 268.5,266.167 268.5,267.5C 222.962,257.659 177.295,248.326 131.5,239.5C 131.5,239.167 131.5,238.833 131.5,238.5C 132.479,235.375 132.813,232.042 132.5,228.5C 177.501,237.167 222.501,245.834 267.5,254.5 Z"/></g>
<g><path style="opacity:1" fill="#fd811b" d="M 268.5,222.5 C 268.5,224.5 268.5,226.5 268.5,228.5C 268.5,230.5 268.5,232.5 268.5,234.5C 298.52,245.189 323.186,263.189 342.5,288.5C 342.5,289.833 342.5,291.167 342.5,292.5C 342.784,294.415 342.451,296.081 341.5,297.5C 322.661,271.002 297.995,252.002 267.5,240.5C 267.5,238.5 267.5,236.5 267.5,234.5C 267.5,230.833 267.5,227.167 267.5,223.5C 267.5,222.833 267.833,222.5 268.5,222.5 Z"/></g>
<g><path style="opacity:1" fill="#ffe4a9" d="M 131.5,239.5 C 177.295,248.326 222.962,257.659 268.5,267.5C 268.5,268.5 268.5,269.5 268.5,270.5C 269.159,273.455 269.492,276.455 269.5,279.5C 268.766,278.122 268.099,276.622 267.5,275C 222.135,266.227 176.801,257.394 131.5,248.5C 131.5,245.5 131.5,242.5 131.5,239.5 Z"/></g>
<g><path style="opacity:1" fill="#fc8b20" d="M 267.5,240.5 C 297.995,252.002 322.661,271.002 341.5,297.5C 341.608,302.87 341.275,308.203 340.5,313.5C 327.407,290.573 309.407,272.407 286.5,259C 280.371,255.6 274.037,252.766 267.5,250.5C 267.5,247.5 267.5,244.5 267.5,241.5C 267.5,241.167 267.5,240.833 267.5,240.5 Z"/></g>
<g><path style="opacity:1" fill="#fb9d2b" d="M 131.5,231.5 C 131.5,233.833 131.5,236.167 131.5,238.5C 131.5,238.833 131.5,239.167 131.5,239.5C 131.5,242.5 131.5,245.5 131.5,248.5C 131.5,251.167 131.5,253.833 131.5,256.5C 131.5,258.167 131.5,259.833 131.5,261.5C 124.267,262.725 117.267,264.725 110.5,267.5C 110.694,256.984 111.361,246.651 112.5,236.5C 118.656,234.227 124.989,232.56 131.5,231.5 Z"/></g>
<g><path style="opacity:1" fill="#ffe8b4" d="M 131.5,248.5 C 176.801,257.394 222.135,266.227 267.5,275C 268.099,276.622 268.766,278.122 269.5,279.5C 269.5,280.167 269.5,280.833 269.5,281.5C 269.5,281.833 269.5,282.167 269.5,282.5C 223.523,273.704 177.523,265.038 131.5,256.5C 131.5,253.833 131.5,251.167 131.5,248.5 Z"/></g>
<g><path style="opacity:1" fill="#fb9325" d="M 340.5,242.5 C 367.075,255.612 391.408,271.945 413.5,291.5C 415.236,297.589 416.236,303.922 416.5,310.5C 416.631,311.239 416.464,311.906 416,312.5C 394.778,290.431 370.611,272.431 343.5,258.5C 343.324,255.273 342.657,252.273 341.5,249.5C 341.007,247.194 340.674,244.861 340.5,242.5 Z"/></g>
<g><path style="opacity:1" fill="#fc9727" d="M 267.5,250.5 C 274.037,252.766 280.371,255.6 286.5,259C 309.407,272.407 327.407,290.573 340.5,313.5C 340.5,314.5 340.5,315.5 340.5,316.5C 340.073,320.824 339.739,325.158 339.5,329.5C 339.5,330.5 339.5,331.5 339.5,332.5C 338.71,333.609 338.21,334.942 338,336.5C 324.525,302.86 301.358,278.527 268.5,263.5C 268.296,260.482 267.963,257.482 267.5,254.5C 267.5,253.167 267.5,251.833 267.5,250.5 Z"/></g>
<g><path style="opacity:1" fill="#fb9928" d="M 343.5,258.5 C 370.611,272.431 394.778,290.431 416,312.5C 416.464,311.906 416.631,311.239 416.5,310.5C 417.725,315.29 418.392,320.29 418.5,325.5C 418.663,327.857 418.497,330.19 418,332.5C 396.897,308.395 372.397,288.728 344.5,273.5C 344.818,268.968 344.485,264.634 343.5,260.5C 343.5,259.833 343.5,259.167 343.5,258.5 Z"/></g>
<g><path style="opacity:1" fill="#ffecc3" d="M 131.5,256.5 C 177.523,265.038 223.523,273.704 269.5,282.5C 270.265,285.096 270.599,287.763 270.5,290.5C 270.5,291.167 270.5,291.833 270.5,292.5C 225.31,284.029 180.144,275.362 135,266.5C 133.624,266.684 132.791,267.351 132.5,268.5C 131.532,266.393 131.198,264.059 131.5,261.5C 131.5,259.833 131.5,258.167 131.5,256.5 Z"/></g>
<g><path style="opacity:1" fill="#fba02b" d="M 268.5,263.5 C 301.358,278.527 324.525,302.86 338,336.5C 338.21,334.942 338.71,333.609 339.5,332.5C 338.928,341.177 338.261,349.843 337.5,358.5C 337.5,359.167 337.5,359.833 337.5,360.5C 328.075,320.077 305.075,290.077 268.5,270.5C 268.5,269.5 268.5,268.5 268.5,267.5C 268.5,266.167 268.5,264.833 268.5,263.5 Z"/></g>
<g><path style="opacity:1" fill="#fff0cf" d="M 270.5,292.5 C 271.307,296.021 271.974,299.688 272.5,303.5C 225.941,293.788 179.274,284.455 132.5,275.5C 132.5,273.167 132.5,270.833 132.5,268.5C 132.791,267.351 133.624,266.684 135,266.5C 180.144,275.362 225.31,284.029 270.5,292.5 Z"/></g>
<g><path style="opacity:1" fill="#fba630" d="M 268.5,270.5 C 305.075,290.077 328.075,320.077 337.5,360.5C 336.472,370.808 335.805,381.141 335.5,391.5C 334.887,396.535 334.221,401.535 333.5,406.5C 333.502,411.182 331.502,414.515 327.5,416.5C 337.735,368.368 324.735,327.535 288.5,294C 282.481,289.326 276.147,285.159 269.5,281.5C 269.5,280.833 269.5,280.167 269.5,279.5C 269.492,276.455 269.159,273.455 268.5,270.5 Z"/></g>
<g><path style="opacity:1" fill="#faaa32" d="M 131.5,261.5 C 131.198,264.059 131.532,266.393 132.5,268.5C 132.5,270.833 132.5,273.167 132.5,275.5C 132.183,279.702 132.517,283.702 133.5,287.5C 133.5,288.5 133.5,289.5 133.5,290.5C 133.5,292.167 133.5,293.833 133.5,295.5C 124.905,297.365 116.572,300.032 108.5,303.5C 108.819,291.453 109.486,279.453 110.5,267.5C 117.267,264.725 124.267,262.725 131.5,261.5 Z"/></g>
<g><path style="opacity:1" fill="#fff4db" d="M 132.5,275.5 C 179.274,284.455 225.941,293.788 272.5,303.5C 272.5,304.167 272.5,304.833 272.5,305.5C 272.833,307.5 273.167,309.5 273.5,311.5C 226.889,302.245 180.223,293.245 133.5,284.5C 133.5,285.5 133.5,286.5 133.5,287.5C 132.517,283.702 132.183,279.702 132.5,275.5 Z"/></g>
<g><path style="opacity:1" fill="#fb9f2c" d="M 344.5,273.5 C 372.397,288.728 396.897,308.395 418,332.5C 418.497,330.19 418.663,327.857 418.5,325.5C 420.159,336.288 420.826,347.288 420.5,358.5C 420.649,359.552 420.483,360.552 420,361.5C 399.077,333.238 373.744,309.905 344,291.5C 343.617,292.056 343.117,292.389 342.5,292.5C 342.5,291.167 342.5,289.833 342.5,288.5C 343.219,286.236 343.552,283.903 343.5,281.5C 343.575,278.794 343.908,276.127 344.5,273.5 Z"/></g>
<g><path style="opacity:1" fill="#fbac33" d="M 269.5,281.5 C 276.147,285.159 282.481,289.326 288.5,294C 324.735,327.535 337.735,368.368 327.5,416.5C 326.01,418.28 324.01,418.946 321.5,418.5C 320.737,417.732 319.737,417.232 318.5,417C 331.326,369.15 318.993,329.15 281.5,297C 277.929,294.579 274.262,292.413 270.5,290.5C 270.599,287.763 270.265,285.096 269.5,282.5C 269.5,282.167 269.5,281.833 269.5,281.5 Z"/></g>
<g><path style="opacity:1" fill="#fff6e3" d="M 273.5,311.5 C 273.833,313.5 274.167,315.5 274.5,317.5C 227.605,307.962 180.605,298.962 133.5,290.5C 133.5,289.5 133.5,288.5 133.5,287.5C 133.5,286.5 133.5,285.5 133.5,284.5C 180.223,293.245 226.889,302.245 273.5,311.5 Z"/></g>
<g><path style="opacity:1" fill="#fbb236" d="M 270.5,290.5 C 274.262,292.413 277.929,294.579 281.5,297C 318.993,329.15 331.326,369.15 318.5,417C 319.737,417.232 320.737,417.732 321.5,418.5C 316.133,417.985 311.8,415.651 308.5,411.5C 318.434,371.472 308.434,337.305 278.5,309C 276.595,307.579 274.595,306.412 272.5,305.5C 272.5,304.833 272.5,304.167 272.5,303.5C 271.974,299.688 271.307,296.021 270.5,292.5C 270.5,291.833 270.5,291.167 270.5,290.5 Z"/></g>
<g><path style="opacity:1" fill="#fba62f" d="M 420.5,358.5 C 421.493,367.318 421.827,376.318 421.5,385.5C 421.665,388.85 421.498,392.183 421,395.5C 400.85,362.015 374.517,334.349 342,312.5C 341.79,314.058 341.29,315.391 340.5,316.5C 340.5,315.5 340.5,314.5 340.5,313.5C 341.275,308.203 341.608,302.87 341.5,297.5C 342.451,296.081 342.784,294.415 342.5,292.5C 343.117,292.389 343.617,292.056 344,291.5C 373.744,309.905 399.077,333.238 420,361.5C 420.483,360.552 420.649,359.552 420.5,358.5 Z"/></g>
<g><path style="opacity:1" fill="#fff9ed" d="M 133.5,290.5 C 180.605,298.962 227.605,307.962 274.5,317.5C 275.01,320.539 275.677,323.539 276.5,326.5C 229.067,318.013 181.734,309.013 134.5,299.5C 134.167,298.167 133.833,296.833 133.5,295.5C 133.5,293.833 133.5,292.167 133.5,290.5 Z"/></g>
<g><path style="opacity:1" fill="#fffcf5" d="M 134.5,299.5 C 181.734,309.013 229.067,318.013 276.5,326.5C 276.833,329.167 277.167,331.833 277.5,334.5C 230.215,325.043 182.882,315.71 135.5,306.5C 135.007,304.194 134.674,301.861 134.5,299.5 Z"/></g>
<g><path style="opacity:1" fill="#fffefe" d="M 135.5,306.5 C 182.882,315.71 230.215,325.043 277.5,334.5C 281.571,353.112 286.737,371.445 293,389.5C 296.468,398.128 301.634,405.461 308.5,411.5C 311.8,415.651 316.133,417.985 321.5,418.5C 324.01,418.946 326.01,418.28 327.5,416.5C 331.502,414.515 333.502,411.182 333.5,406.5C 340.115,415.021 346.282,424.021 352,433.5C 357.333,440.167 362.667,446.833 368,453.5C 369.559,455.217 370.392,457.217 370.5,459.5C 361.534,461.658 352.534,463.658 343.5,465.5C 311.601,472.747 279.601,473.247 247.5,467C 214.156,456.995 188.323,437.161 170,407.5C 164.281,398.058 159.114,388.391 154.5,378.5C 150.276,367.157 146.276,355.823 142.5,344.5C 139.652,331.926 137.319,319.26 135.5,306.5 Z"/></g>
<g><path style="opacity:1" fill="#faba3b" d="M 272.5,305.5 C 274.595,306.412 276.595,307.579 278.5,309C 308.434,337.305 318.434,371.472 308.5,411.5C 301.634,405.461 296.468,398.128 293,389.5C 286.737,371.445 281.571,353.112 277.5,334.5C 277.167,331.833 276.833,329.167 276.5,326.5C 275.677,323.539 275.01,320.539 274.5,317.5C 274.167,315.5 273.833,313.5 273.5,311.5C 273.167,309.5 272.833,307.5 272.5,305.5 Z"/></g>
<g><path style="opacity:1" fill="#faac33" d="M 421.5,385.5 C 422.496,400.324 422.829,415.324 422.5,430.5C 407.919,397.727 387.252,369.227 360.5,345C 353.885,339.205 346.885,334.039 339.5,329.5C 339.739,325.158 340.073,320.824 340.5,316.5C 341.29,315.391 341.79,314.058 342,312.5C 374.517,334.349 400.85,362.015 421,395.5C 421.498,392.183 421.665,388.85 421.5,385.5 Z"/></g>
<g><path style="opacity:1" fill="#fab73a" d="M 133.5,295.5 C 133.833,296.833 134.167,298.167 134.5,299.5C 134.674,301.861 135.007,304.194 135.5,306.5C 137.319,319.26 139.652,331.926 142.5,344.5C 131.78,348.438 121.28,353.105 111,358.5C 110.722,357.584 110.222,356.918 109.5,356.5C 108.541,338.868 108.207,321.201 108.5,303.5C 116.572,300.032 124.905,297.365 133.5,295.5 Z"/></g>
<g><path style="opacity:1" fill="#fab136" d="M 339.5,329.5 C 346.885,334.039 353.885,339.205 360.5,345C 387.252,369.227 407.919,397.727 422.5,430.5C 422.335,433.85 422.502,437.183 423,440.5C 426.252,445.334 429.252,450.334 432,455.5C 433.176,463.664 429.676,468.498 421.5,470C 417.334,470.666 413.334,470.166 409.5,468.5C 397.006,424.061 373.006,387.394 337.5,358.5C 338.261,349.843 338.928,341.177 339.5,332.5C 339.5,331.5 339.5,330.5 339.5,329.5 Z"/></g>
<g><path style="opacity:1" fill="#f9bf3e" d="M 142.5,344.5 C 146.276,355.823 150.276,367.157 154.5,378.5C 142.024,383.07 130.024,388.737 118.5,395.5C 112.872,383.243 109.872,370.243 109.5,356.5C 110.222,356.918 110.722,357.584 111,358.5C 121.28,353.105 131.78,348.438 142.5,344.5 Z"/></g>
<g><path style="opacity:1" fill="#fab839" d="M 337.5,358.5 C 373.006,387.394 397.006,424.061 409.5,468.5C 405.866,467.603 402.366,466.27 399,464.5C 393.915,466.229 388.748,467.563 383.5,468.5C 375.063,445.294 363.23,423.961 348,404.5C 344.33,399.664 340.164,395.331 335.5,391.5C 335.805,381.141 336.472,370.808 337.5,360.5C 337.5,359.833 337.5,359.167 337.5,358.5 Z"/></g>
<g><path style="opacity:1" fill="#f9c542" d="M 154.5,378.5 C 159.114,388.391 164.281,398.058 170,407.5C 188.323,437.161 214.156,456.995 247.5,467C 279.601,473.247 311.601,472.747 343.5,465.5C 344.27,469.703 345.604,473.703 347.5,477.5C 325.81,482.559 303.81,485.225 281.5,485.5C 271.403,485.92 261.403,485.254 251.5,483.5C 235.111,480.04 219.778,474.04 205.5,465.5C 182.962,448.625 164.629,427.958 150.5,403.5C 147.519,411.345 141.852,414.178 133.5,412C 125.856,408.858 120.856,403.358 118.5,395.5C 130.024,388.737 142.024,383.07 154.5,378.5 Z"/></g>
<g><path style="opacity:1" fill="#f9be3f" d="M 335.5,391.5 C 340.164,395.331 344.33,399.664 348,404.5C 363.23,423.961 375.063,445.294 383.5,468.5C 372.449,472.098 361.116,475.098 349.5,477.5C 348.833,477.5 348.167,477.5 347.5,477.5C 345.604,473.703 344.27,469.703 343.5,465.5C 352.534,463.658 361.534,461.658 370.5,459.5C 370.392,457.217 369.559,455.217 368,453.5C 362.667,446.833 357.333,440.167 352,433.5C 346.282,424.021 340.115,415.021 333.5,406.5C 334.221,401.535 334.887,396.535 335.5,391.5 Z"/></g>
<g><path style="opacity:1" fill="#d84315" d="M 205.5,465.5 C 219.778,474.04 235.111,480.04 251.5,483.5C 243.952,494.881 234.285,504.048 222.5,511C 215.327,513.002 210.827,510.502 209,503.5C 202.347,507.497 195.18,508.997 187.5,508C 183.282,506.265 181.449,503.099 182,498.5C 176.706,501.46 171.706,501.126 167,497.5C 166.333,495.167 166.333,492.833 167,490.5C 168.833,488.667 170.667,486.833 172.5,485C 183.893,478.978 194.893,472.478 205.5,465.5 Z"/></g>
<g><path style="opacity:1" fill="#d84314" d="M 347.5,477.5 C 348.167,477.5 348.833,477.5 349.5,477.5C 349.076,482.192 347.576,486.525 345,490.5C 337.12,502.713 326.954,512.547 314.5,520C 309.605,522.394 305.105,521.894 301,518.5C 300.781,517.062 300.281,515.729 299.5,514.5C 292.989,518.378 285.989,519.878 278.5,519C 275.059,517.682 273.725,515.182 274.5,511.5C 269.437,512.926 264.437,512.759 259.5,511C 257.675,509.534 257.175,507.701 258,505.5C 259.793,502.705 261.96,500.205 264.5,498C 270.234,493.812 275.901,489.646 281.5,485.5C 303.81,485.225 325.81,482.559 347.5,477.5 Z"/></g>
</svg>
